<?xml version="1.0" encoding="utf-8"?>
<svg width="24" height="24px" viewBox="0 0 24 20" xmlns="http://www.w3.org/2000/svg">
  <path d="M 7.701 15.598 C 6.641 15.598 5.784 16.44 5.784 17.47 C 5.784 18.501 6.641 19.344 7.701 19.344 C 8.761 19.344 9.628 18.501 9.628 17.47 C 9.628 16.44 8.761 15.598 7.701 15.598 Z M 1.921 0.614 L 1.921 2.487 L 3.848 2.487 L 7.316 9.594 L 6.015 11.889 C 5.862 12.152 5.774 12.46 5.774 12.788 C 5.774 13.818 6.641 14.661 7.701 14.661 L 19.261 14.661 L 19.261 12.788 L 8.106 12.788 C 7.97 12.788 7.865 12.684 7.865 12.552 L 7.894 12.44 L 8.761 10.915 L 15.938 10.915 C 16.661 10.915 17.296 10.53 17.624 9.949 L 21.073 3.873 C 21.15 3.741 21.189 3.581 21.189 3.423 C 21.189 2.907 20.755 2.487 20.225 2.487 L 5.976 2.487 L 5.071 0.614 L 1.921 0.614 Z M 17.335 15.598 C 16.276 15.598 15.417 16.44 15.417 17.47 C 15.417 18.501 16.276 19.344 17.335 19.344 C 18.394 19.344 19.261 18.501 19.261 17.47 C 19.261 16.44 18.394 15.598 17.335 15.598 Z" style="paint-order: stroke; stroke-linecap: round; fill: rgb(255, 255, 255); stroke: rgba(0, 0, 0, 0.44);" transform="matrix(0.999977, -0.006742, 0.006742, 0.999977, -0.067016, 0.078131)"/>
</svg>