<?xml version="1.0" encoding="utf-8"?>
<svg width="24" height="24px" viewBox="0 0 24 27" xmlns="http://www.w3.org/2000/svg">
  <path d="M 7.68 22.51 C 6.62 22.51 5.763 23.352 5.763 24.382 C 5.763 25.413 6.62 26.256 7.68 26.256 C 8.74 26.256 9.607 25.413 9.607 24.382 C 9.607 23.352 8.74 22.51 7.68 22.51 Z M 1.9 7.526 L 1.9 9.399 L 3.827 9.399 L 7.295 16.506 L 5.994 18.801 C 5.841 19.064 5.753 19.372 5.753 19.7 C 5.753 20.73 6.62 21.573 7.68 21.573 L 19.24 21.573 L 19.24 19.7 L 8.085 19.7 C 7.949 19.7 7.844 19.596 7.844 19.464 L 7.873 19.352 L 8.74 17.827 L 15.917 17.827 C 16.64 17.827 17.275 17.442 17.603 16.861 L 21.052 10.785 C 21.129 10.653 21.168 10.493 21.168 10.335 C 21.168 9.819 20.734 9.399 20.204 9.399 L 5.955 9.399 L 5.05 7.526 L 1.9 7.526 Z M 17.314 22.51 C 16.255 22.51 15.396 23.352 15.396 24.382 C 15.396 25.413 16.255 26.256 17.314 26.256 C 18.373 26.256 19.24 25.413 19.24 24.382 C 19.24 23.352 18.373 22.51 17.314 22.51 Z" style="paint-order: stroke; stroke-linecap: round; fill: rgb(255, 255, 255); stroke: rgba(0, 0, 0, 0.44);" transform="matrix(0.999977, -0.006742, 0.006742, 0.999977, -0.113617, 0.078146)"/>
</svg>