<?xml version="1.0" encoding="UTF-8"?>
<!DOCTYPE svg PUBLIC "-//W3C//DTD SVG 1.1//EN" "http://www.w3.org/Graphics/SVG/1.1/DTD/svg11.dtd">
<!-- Creator: CorelDRAW X8 -->
<svg xmlns="http://www.w3.org/2000/svg" xml:space="preserve" width="9.99999in" height="7.43055in" version="1.1" style="shape-rendering:geometricPrecision; text-rendering:geometricPrecision; image-rendering:optimizeQuality; fill-rule:evenodd; clip-rule:evenodd"
viewBox="0 0 10000 7431"
 xmlns:xlink="http://www.w3.org/1999/xlink">
 <defs>
  <style type="text/css">
   <![CDATA[
    .fil0 {fill:#1CAFDA}
    .fil1 {fill:white;fill-rule:nonzero}
   ]]>
  </style>
 </defs>
 <g id="Layer_x0020_1">
  <metadata id="CorelCorpID_0Corel-Layer"/>
  <rect class="fil0" width="10000" height="7431"/>
  <g id="_1829942123968">
   <path class="fil1" d="M8541 4206l-382 -567 341 -359 -105 0 -494 528 0 -528 -82 0 0 926 82 0 0 -294 201 -214 340 508 99 0zm-1781 -482l0 -370 215 0c45,0 83,2 116,6 33,4 60,13 82,28 24,16 41,37 53,62 11,25 17,52 17,83 0,30 -4,57 -13,80 -9,22 -23,41 -41,58 -21,18 -50,32 -86,41 -36,8 -78,13 -128,12l-215 0zm601 482l-293 -416c86,-10 151,-36 196,-80 44,-44 67,-102 67,-175 -1,-56 -13,-103 -38,-142 -24,-39 -55,-67 -93,-83 -32,-14 -68,-22 -108,-26 -39,-3 -83,-5 -130,-4l-285 0 0 926 83 0 0 -407 222 0 277 407 102 0zm-1648 -343c41,-107 73,-192 96,-254 24,-63 42,-112 55,-147 13,-35 24,-66 33,-92 9,27 20,58 33,93 13,35 30,83 53,145 24,62 55,147 95,255l-365 0zm580 343l-350 -926 -87 0 -360 926 91 0 99 -270 419 0 97 270 91 0zm-1160 0l0 -926 -123 0c-72,194 -126,341 -163,441 -37,100 -64,175 -82,225 -18,50 -35,97 -50,142 -17,-48 -34,-97 -53,-149 -19,-51 -47,-127 -85,-226 -38,-99 -94,-243 -168,-433l-119 0 0 926 80 0c0,-210 0,-371 -1,-482 0,-111 0,-192 -1,-243 -1,-50 -2,-90 -4,-119 14,42 30,89 49,141 20,53 49,133 90,239 41,106 100,261 178,464l64 0c62,-163 112,-297 151,-401 39,-104 71,-190 96,-258 25,-68 47,-130 67,-186 -2,31 -3,71 -4,120 0,48 -1,128 -1,238 -1,110 -1,272 -1,487l80 0zm-1347 0l0 -926 -83 0 0 926 83 0zm-1134 -482l0 -370 215 0c44,0 83,2 116,6 32,4 60,13 82,28 24,16 41,37 53,62 11,25 17,52 17,83 0,30 -5,57 -14,80 -8,22 -22,41 -40,58 -21,18 -50,32 -86,41 -36,8 -79,13 -128,12l-215 0zm601 482l-293 -416c86,-10 151,-36 195,-80 45,-44 67,-102 67,-175 0,-56 -13,-103 -37,-142 -24,-39 -56,-67 -94,-83 -32,-14 -68,-22 -107,-26 -40,-3 -83,-5 -130,-4l-285 0 0 926 83 0 0 -407 221 0 277 407 103 0zm-1696 -487l0 -365 223 0c61,0 109,1 146,6 36,4 66,15 89,32 18,14 33,33 43,56 11,24 16,50 16,81 0,39 -8,72 -23,100 -16,27 -39,48 -69,61 -26,11 -58,19 -96,23 -39,4 -81,6 -128,6l-201 0zm0 487l0 -412 205 0c59,0 109,-3 150,-8 41,-5 76,-14 103,-25 51,-21 89,-52 112,-92 24,-40 35,-86 35,-139 -1,-50 -11,-95 -31,-133 -21,-39 -49,-67 -85,-85 -22,-11 -52,-19 -89,-24 -37,-6 -87,-9 -149,-8l-332 0 0 926 81 0z"/>
   <path class="fil1" d="M8719 3362l0 -34 20 0c4,0 7,0 9,0 3,0 5,1 7,1 4,2 6,3 8,6 1,2 2,5 2,9 0,3 -1,6 -2,9 -1,2 -3,4 -5,5 -2,2 -5,2 -7,3 -3,0 -7,1 -11,1l-21 0zm75 67l-34 -50c9,-2 17,-6 21,-13 5,-6 8,-14 7,-23 1,-7 -1,-13 -4,-18 -2,-6 -7,-10 -13,-13 -3,-2 -8,-3 -13,-4 -5,-1 -12,-1 -21,-1l-42 0 0 122 24 0 0 -47 17 0 30 47 28 0zm34 -58c-1,25 -10,47 -26,64 -16,16 -37,25 -63,26 -26,-1 -47,-10 -64,-27 -17,-17 -26,-39 -27,-64 1,-27 9,-48 26,-65 17,-17 39,-26 65,-26 26,0 47,9 63,26 17,17 25,39 26,66l0 0zm15 -3c-1,-29 -11,-54 -31,-73 -19,-19 -44,-29 -73,-30 -31,1 -56,11 -75,30 -20,20 -30,45 -31,74 1,30 11,55 31,75 20,19 45,29 76,30 30,-1 54,-11 73,-30 19,-20 29,-45 30,-76l0 0z"/>
  </g>
 </g>
</svg>
