<?xml version="1.0" encoding="UTF-8"?>
<!DOCTYPE svg PUBLIC "-//W3C//DTD SVG 1.1//EN" "http://www.w3.org/Graphics/SVG/1.1/DTD/svg11.dtd">
<!-- Creator: CorelDRAW X8 -->
<svg xmlns="http://www.w3.org/2000/svg" xml:space="preserve" width="10in" height="7.43056in" version="1.1" style="shape-rendering:geometricPrecision; text-rendering:geometricPrecision; image-rendering:optimizeQuality; fill-rule:evenodd; clip-rule:evenodd"
viewBox="0 0 10000 7431"
 xmlns:xlink="http://www.w3.org/1999/xlink">
 <defs>
  <style type="text/css">
   <![CDATA[
    .fil0 {fill:white}
    .fil1 {fill:black;fill-rule:nonzero}
   ]]>
  </style>
 </defs>
 <g id="Layer_x0020_1">
  <metadata id="CorelCorpID_0Corel-Layer"/>
  <polygon class="fil0" points="0,7431 10000,7431 10000,0 0,0 "/>
  <path class="fil1" d="M4983 5271c0,-168 136,-303 304,-303 168,0 303,135 303,303 0,169 -135,304 -303,304 -168,0 -304,-135 -304,-304l0 0zm1235 0c0,-168 135,-303 304,-303 168,0 303,135 303,303 0,169 -135,304 -303,304 -169,0 -304,-135 -304,-304l0 0zm-2862 0c0,-168 135,-303 303,-303 168,0 304,135 304,303 0,169 -136,304 -304,304 -168,0 -303,-135 -303,-304l0 0zm-1235 0c0,-168 135,-303 303,-303 169,0 304,135 304,303 0,169 -135,304 -304,304 -168,0 -303,-135 -303,-304l0 0zm2496 -536l-264 0 0 1062 264 0 0 -1062zm-1891 1062l264 0 0 -1062 -264 0 0 85c-90,-62 -198,-97 -314,-97 -304,0 -549,245 -549,548 0,306 245,549 549,549 116,0 224,-35 314,-97l0 74zm4097 0l264 0 0 -1062 -264 0 0 85c-89,-62 -197,-97 -314,-97 -303,0 -548,245 -548,548 0,306 245,549 548,549 117,0 225,-35 314,-97l0 74zm362 -345c8,214 191,366 497,366 249,0 455,-108 455,-347 0,-166 -93,-264 -310,-306l-168 -33c-108,-21 -183,-41 -183,-106 0,-71 73,-102 164,-102 133,0 187,67 192,146l266 0c-15,-208 -181,-347 -449,-347 -277,0 -441,151 -441,349 0,241 195,280 364,312l139 25c100,18 143,47 143,106 0,52 -49,104 -168,104 -173,0 -229,-90 -231,-167l-270 0zm-3224 -1079l0 447c-90,-62 -198,-97 -314,-97 -304,0 -549,245 -549,548 0,306 245,549 549,549 116,0 224,-35 314,-97l0 74 264 0 0 -1424 -264 0zm1627 0l0 447c-89,-62 -197,-97 -314,-97 -303,0 -548,245 -548,548 0,306 245,549 548,549 117,0 225,-35 314,-97l0 74 264 0 0 -1424 -264 0zm-3039 -314l179 314 1233 0 -489 -844 -923 530zm2068 578l0 -264 971 0 -1035 -1792 -925 530 725 1262 0 264 264 0zm1364 -264l1235 0 -1596 -2763 -923 533 1284 2230z"/>
 </g>
</svg>
